# xmcd
#
# Track frame offsets: 
#        150
#        19928
#        42928
#
# Disc length: 804 seconds
#
# Revision: 6
# Processed by: cddbd v1.5.2PL0 Copyright (c) Steve Scherf et al.
# Submitted via: ExactAudioCopy v0.99pb3
#
DISCID=1d032203
DTITLE=Rollerskate Skinny - Speed To My Side
DYEAR=1996
DGENRE=Pop
TTITLE0=Speed To My Side (Edit)
TTITLE1=Good Night Diamond
TTITLE2=Trial Of Witness
EXTD=YEAR: 1991
EXTT0=
EXTT1=
EXTT2=
PLAYORDER=
